<?xml version="1.0" encoding="iso-8859-1"?>
<!-- Generator: Adobe Illustrator 22.1.0, SVG Export Plug-In . SVG Version: 6.00 Build 0)  -->
<svg xmlns="http://www.w3.org/2000/svg" xmlns:xlink="http://www.w3.org/1999/xlink" version="1.1" id="Layer_3" x="0px" y="0px" viewBox="0 0 64 64" style="enable-background:new 0 0 64 64;" xml:space="preserve" width="512" height="512">
<g>
	<rect x="10" y="14" style="fill:#AE895D;" width="30" height="36"/>
	<rect x="10" y="14" style="fill:#E8B67C;" width="27" height="36"/>
	<g>
		
			<rect x="29.757" y="39" transform="matrix(0.7071 -0.7071 0.7071 0.7071 -18.3259 35.7574)" style="fill:#474A4D;" width="8.485" height="2"/>
	</g>
	<path style="fill:#5F6366;" d="M39.536,29.464l3.929-3.929C45.728,23.272,48.799,22,52,22h0v0c0,3.201-1.272,6.272-3.536,8.536   l-3.929,3.929C42.272,36.728,39.201,38,36,38h0v0C36,34.799,37.272,31.728,39.536,29.464z"/>
	<path style="fill:#7E8488;" d="M43.464,25.536l-3.929,3.929c-2.095,2.095-3.327,4.884-3.5,7.826c1.675-0.595,3.219-1.545,4.5-2.826   l3.929-3.929c2.095-2.095,3.327-4.884,3.5-7.826C46.29,23.305,44.745,24.255,43.464,25.536z"/>
	<rect x="48" y="8" style="fill:#AE895D;" width="5" height="4"/>
	<rect x="2" y="8" style="fill:#AE895D;" width="4" height="4"/>
	<rect x="2" y="52" style="fill:#AE895D;" width="4" height="4"/>
	<rect x="48" y="52" style="fill:#AE895D;" width="5" height="4"/>
	<circle style="fill:#694A2B;" cx="57" cy="10" r="5"/>
	<ellipse style="fill:#8C6239;" cx="55.5" cy="10" rx="3.5" ry="4.746"/>
	<circle style="fill:#694A2B;" cx="57" cy="54" r="5"/>
	<ellipse style="fill:#8C6239;" cx="55.5" cy="54" rx="3.5" ry="4.746"/>
	<polyline style="fill:#694A2B;" points="44,50 44,46 48,46 48,62 44,62 44,58  "/>
	<polygon style="fill:#8C6239;" points="44,46 44,50 44,58 44,62 46,62 46,46  "/>
	<polyline style="fill:#694A2B;" points="44,6 44,2 48,2 48,18 44,18 44,14  "/>
	<polygon style="fill:#8C6239;" points="44,2 44,6 44,14 44,18 46,18 46,2  "/>
	<rect x="6" y="50" style="fill:#694A2B;" width="38" height="8"/>
	<rect x="6" y="50" style="fill:#8C6239;" width="35" height="8"/>
	<rect x="6" y="6" style="fill:#694A2B;" width="38" height="8"/>
	<rect x="6" y="6" style="fill:#8C6239;" width="35" height="8"/>
	<rect x="16" y="18" style="fill:#B9A33E;" width="18" height="6"/>
	<rect x="16" y="18" style="fill:#F7DA52;" width="15" height="6"/>
	<g>
		<rect x="13" y="27" style="fill:#8C6239;" width="24" height="2"/>
	</g>
	<g>
		<rect x="13" y="31" style="fill:#8C6239;" width="20" height="2"/>
	</g>
	<g>
		<rect x="13" y="35" style="fill:#8C6239;" width="20" height="2"/>
	</g>
	<g>
		<rect x="13" y="39" style="fill:#8C6239;" width="16" height="2"/>
	</g>
	<g>
		<rect x="13" y="43" style="fill:#8C6239;" width="16" height="2"/>
	</g>
</g>
</svg>
